<svg width="64" height="64" viewBox="0 0 64 64" fill="none" xmlns="http://www.w3.org/2000/svg">
<rect width="64" height="64" rx="8" fill="#E9F2FF"/>
<path d="M34.6667 27.7333C34.6667 27.6 34.7112 27.4722 34.8 27.35C34.8889 27.2278 34.9889 27.1444 35.1 27.1C35.7667 26.8555 36.45 26.6666 37.15 26.5333C37.85 26.4 38.5778 26.3333 39.3334 26.3333C39.8223 26.3333 40.3 26.3611 40.7667 26.4166C41.2334 26.4722 41.6889 26.5555 42.1334 26.6666C42.2667 26.7111 42.3889 26.7944 42.5 26.9166C42.6112 27.0389 42.6667 27.1778 42.6667 27.3333C42.6667 27.5778 42.5834 27.7666 42.4167 27.9C42.25 28.0333 42.0445 28.0666 41.8 28C41.4223 27.8889 41.0278 27.8055 40.6167 27.75C40.2056 27.6944 39.7778 27.6666 39.3334 27.6666C38.6889 27.6666 38.0667 27.7278 37.4667 27.85C36.8667 27.9722 36.2778 28.1555 35.7 28.4C35.3889 28.5111 35.1389 28.5055 34.95 28.3833C34.7612 28.2611 34.6667 28.0444 34.6667 27.7333ZM34.6667 35.0666C34.6667 34.9333 34.7112 34.8 34.8 34.6666C34.8889 34.5333 34.9889 34.4444 35.1 34.4C35.7667 34.1555 36.45 33.9722 37.15 33.85C37.85 33.7278 38.5778 33.6666 39.3334 33.6666C39.8223 33.6666 40.3 33.6944 40.7667 33.75C41.2334 33.8055 41.6889 33.8889 42.1334 34C42.2667 34.0444 42.3889 34.1278 42.5 34.25C42.6112 34.3722 42.6667 34.5111 42.6667 34.6666C42.6667 34.9111 42.5834 35.1 42.4167 35.2333C42.25 35.3666 42.0445 35.4 41.8 35.3333C41.4223 35.2222 41.0278 35.1389 40.6167 35.0833C40.2056 35.0278 39.7778 35 39.3334 35C38.6889 35 38.0667 35.0555 37.4667 35.1666C36.8667 35.2778 36.2778 35.4555 35.7 35.7C35.3889 35.8111 35.1389 35.8111 34.95 35.7C34.7612 35.5889 34.6667 35.3778 34.6667 35.0666ZM34.6667 31.4C34.6667 31.2666 34.7112 31.1389 34.8 31.0166C34.8889 30.8944 34.9889 30.8111 35.1 30.7666C35.7667 30.5222 36.45 30.3333 37.15 30.2C37.85 30.0666 38.5778 30 39.3334 30C39.8223 30 40.3 30.0278 40.7667 30.0833C41.2334 30.1389 41.6889 30.2222 42.1334 30.3333C42.2667 30.3778 42.3889 30.4611 42.5 30.5833C42.6112 30.7055 42.6667 30.8444 42.6667 31C42.6667 31.2444 42.5834 31.4333 42.4167 31.5666C42.25 31.7 42.0445 31.7333 41.8 31.6666C41.4223 31.5555 41.0278 31.4722 40.6167 31.4166C40.2056 31.3611 39.7778 31.3333 39.3334 31.3333C38.6889 31.3333 38.0667 31.3944 37.4667 31.5166C36.8667 31.6389 36.2778 31.8222 35.7 32.0666C35.3889 32.1778 35.1389 32.1722 34.95 32.05C34.7612 31.9278 34.6667 31.7111 34.6667 31.4ZM24.2667 38C25.4667 38 26.6278 38.1389 27.75 38.4166C28.8723 38.6944 29.9778 39.1111 31.0667 39.6666V25.4333C30.0667 24.7666 28.9834 24.25 27.8167 23.8833C26.65 23.5166 25.4667 23.3333 24.2667 23.3333C23.4223 23.3333 22.5945 23.4389 21.7834 23.65C20.9723 23.8611 20.1556 24.1222 19.3334 24.4333V38.9C20.0223 38.5889 20.8056 38.3611 21.6834 38.2166C22.5612 38.0722 23.4223 38 24.2667 38ZM33.0667 39.6666C34.1778 39.1111 35.2667 38.6944 36.3334 38.4166C37.4 38.1389 38.5334 38 39.7334 38C40.5778 38 41.45 38.0666 42.35 38.2C43.25 38.3333 44.0223 38.5111 44.6667 38.7333V24.4333C43.9112 24.0555 43.1112 23.7778 42.2667 23.6C41.4223 23.4222 40.5778 23.3333 39.7334 23.3333C38.5334 23.3333 37.3723 23.5166 36.25 23.8833C35.1278 24.25 34.0667 24.7666 33.0667 25.4333V39.6666ZM32.0667 42.3C31.8889 42.3 31.7278 42.2833 31.5834 42.25C31.4389 42.2166 31.3112 42.1555 31.2 42.0666C30.1556 41.4222 29.0445 40.9222 27.8667 40.5666C26.6889 40.2111 25.4889 40.0333 24.2667 40.0333C23.4445 40.0333 22.6445 40.1333 21.8667 40.3333C21.0889 40.5333 20.3112 40.7778 19.5334 41.0666C19.0223 41.3111 18.5278 41.2778 18.05 40.9666C17.5723 40.6555 17.3334 40.2111 17.3334 39.6333V24.2C17.3334 23.8666 17.4112 23.5611 17.5667 23.2833C17.7223 23.0055 17.9556 22.7889 18.2667 22.6333C19.2 22.1889 20.1723 21.8611 21.1834 21.65C22.1945 21.4389 23.2223 21.3333 24.2667 21.3333C25.6667 21.3333 27.0278 21.5222 28.35 21.9C29.6723 22.2778 30.9112 22.8555 32.0667 23.6333C33.2 22.8555 34.4167 22.2778 35.7167 21.9C37.0167 21.5222 38.3556 21.3333 39.7334 21.3333C40.7778 21.3333 41.8 21.4389 42.8 21.65C43.8 21.8611 44.7667 22.1889 45.7 22.6333C46.0112 22.7889 46.25 23.0055 46.4167 23.2833C46.5834 23.5611 46.6667 23.8666 46.6667 24.2V39.6333C46.6667 40.2555 46.4167 40.7278 45.9167 41.05C45.4167 41.3722 44.9223 41.3778 44.4334 41.0666C43.6778 40.7555 42.9112 40.5055 42.1334 40.3166C41.3556 40.1278 40.5556 40.0333 39.7334 40.0333C38.5334 40.0333 37.3556 40.2111 36.2 40.5666C35.0445 40.9222 33.9556 41.4222 32.9334 42.0666C32.8223 42.1555 32.6945 42.2166 32.55 42.25C32.4056 42.2833 32.2445 42.3 32.0667 42.3Z" fill="#478FFC"/>
</svg>
