<svg width="64" height="64" viewBox="0 0 64 64" fill="none" xmlns="http://www.w3.org/2000/svg">
<rect width="64" height="64" rx="8" fill="#FDF7E3"/>
<path d="M25.3333 31.6666H38.6666C38.9555 31.6666 39.1944 31.5722 39.3833 31.3833C39.5722 31.1944 39.6666 30.9555 39.6666 30.6666C39.6666 30.3778 39.5722 30.1389 39.3833 29.95C39.1944 29.7611 38.9555 29.6666 38.6666 29.6666H25.3333C25.0444 29.6666 24.8055 29.7611 24.6166 29.95C24.4277 30.1389 24.3333 30.3778 24.3333 30.6666C24.3333 30.9555 24.4277 31.1944 24.6166 31.3833C24.8055 31.5722 25.0444 31.6666 25.3333 31.6666ZM25.3333 37H33.3333C33.6222 37 33.8611 36.9055 34.05 36.7166C34.2388 36.5278 34.3333 36.2889 34.3333 36C34.3333 35.7111 34.2388 35.4722 34.05 35.2833C33.8611 35.0944 33.6222 35 33.3333 35H25.3333C25.0444 35 24.8055 35.0944 24.6166 35.2833C24.4277 35.4722 24.3333 35.7111 24.3333 36C24.3333 36.2889 24.4277 36.5278 24.6166 36.7166C24.8055 36.9055 25.0444 37 25.3333 37ZM20.7 42.6666C20.1666 42.6666 19.7 42.4611 19.3 42.05C18.9 41.6389 18.7 41.1778 18.7 40.6666V23.3333C18.7 22.8222 18.9 22.3611 19.3 21.95C19.7 21.5389 20.1666 21.3333 20.7 21.3333H29.2C29.4666 21.3333 29.7277 21.3889 29.9833 21.5C30.2388 21.6111 30.4555 21.7555 30.6333 21.9333L32.0333 23.3333H43.3666C43.8777 23.3333 44.3388 23.5389 44.75 23.95C45.1611 24.3611 45.3666 24.8222 45.3666 25.3333V40.6666C45.3666 41.1778 45.1611 41.6389 44.75 42.05C44.3388 42.4611 43.8777 42.6666 43.3666 42.6666H20.7ZM20.7 23.3333V40.6666H43.3666V25.3333H31.2L29.2 23.3333H20.7ZM20.7 23.3333V40.6666V23.3333Z" fill="#F2BC16"/>
</svg>
