<svg width="64" height="64" viewBox="0 0 64 64" fill="none" xmlns="http://www.w3.org/2000/svg">
<g id="description 1">
<rect width="64" height="64" rx="8" fill="#E6F8F1"/>
<path id="Vector" d="M27.6333 39.6667H36.3666C36.6555 39.6667 36.8944 39.5722 37.0833 39.3834C37.2721 39.1945 37.3666 38.9556 37.3666 38.6667C37.3666 38.3778 37.2721 38.1389 37.0833 37.95C36.8944 37.7611 36.6555 37.6667 36.3666 37.6667H27.6333C27.3444 37.6667 27.1055 37.7611 26.9166 37.95C26.7277 38.1389 26.6333 38.3778 26.6333 38.6667C26.6333 38.9556 26.7277 39.1945 26.9166 39.3834C27.1055 39.5722 27.3444 39.6667 27.6333 39.6667ZM27.6333 34H36.3666C36.6555 34 36.8944 33.9056 37.0833 33.7167C37.2721 33.5278 37.3666 33.2889 37.3666 33C37.3666 32.7111 37.2721 32.4722 37.0833 32.2834C36.8944 32.0945 36.6555 32 36.3666 32H27.6333C27.3444 32 27.1055 32.0945 26.9166 32.2834C26.7277 32.4722 26.6333 32.7111 26.6333 33C26.6333 33.2889 26.7277 33.5278 26.9166 33.7167C27.1055 33.9056 27.3444 34 27.6333 34ZM23.3333 45.3334C22.7999 45.3334 22.3333 45.1334 21.9333 44.7334C21.5333 44.3334 21.3333 43.8667 21.3333 43.3334V20.6667C21.3333 20.1334 21.5333 19.6667 21.9333 19.2667C22.3333 18.8667 22.7999 18.6667 23.3333 18.6667H34.5333C34.7999 18.6667 35.061 18.7222 35.3166 18.8334C35.5721 18.9445 35.7888 19.0889 35.9666 19.2667L42.0666 25.3667C42.2444 25.5445 42.3888 25.7611 42.4999 26.0167C42.611 26.2722 42.6666 26.5334 42.6666 26.8V43.3334C42.6666 43.8667 42.4666 44.3334 42.0666 44.7334C41.6666 45.1334 41.1999 45.3334 40.6666 45.3334H23.3333ZM34.3666 25.8667V20.6667H23.3333V43.3334H40.6666V26.8667H35.3666C35.0777 26.8667 34.8388 26.7722 34.6499 26.5834C34.461 26.3945 34.3666 26.1556 34.3666 25.8667ZM23.3333 20.6667V26.8667V20.6667V43.3334V20.6667Z" fill="#2DC58C"/>
</g>
</svg>
