<svg width="64" height="64" viewBox="0 0 64 64" fill="none" xmlns="http://www.w3.org/2000/svg">
<rect width="64" height="64" rx="8" fill="#FBE8EA"/>
<path d="M26.3333 38.6666H33.4333C33.7222 38.6666 33.9611 38.5722 34.15 38.3833C34.3389 38.1944 34.4333 37.9555 34.4333 37.6666C34.4333 37.3778 34.3389 37.1389 34.15 36.95C33.9611 36.7611 33.7222 36.6666 33.4333 36.6666H26.3333C26.0444 36.6666 25.8056 36.7611 25.6167 36.95C25.4278 37.1389 25.3333 37.3778 25.3333 37.6666C25.3333 37.9555 25.4278 38.1944 25.6167 38.3833C25.8056 38.5722 26.0444 38.6666 26.3333 38.6666ZM26.3333 33H37.6667C37.9556 33 38.1944 32.9055 38.3833 32.7166C38.5722 32.5278 38.6667 32.2889 38.6667 32C38.6667 31.7111 38.5722 31.4722 38.3833 31.2833C38.1944 31.0944 37.9556 31 37.6667 31H26.3333C26.0444 31 25.8056 31.0944 25.6167 31.2833C25.4278 31.4722 25.3333 31.7111 25.3333 32C25.3333 32.2889 25.4278 32.5278 25.6167 32.7166C25.8056 32.9055 26.0444 33 26.3333 33ZM26.3333 27.3333H37.6667C37.9556 27.3333 38.1944 27.2389 38.3833 27.05C38.5722 26.8611 38.6667 26.6222 38.6667 26.3333C38.6667 26.0444 38.5722 25.8055 38.3833 25.6166C38.1944 25.4278 37.9556 25.3333 37.6667 25.3333H26.3333C26.0444 25.3333 25.8056 25.4278 25.6167 25.6166C25.4278 25.8055 25.3333 26.0444 25.3333 26.3333C25.3333 26.6222 25.4278 26.8611 25.6167 27.05C25.8056 27.2389 26.0444 27.3333 26.3333 27.3333ZM22 42H42V22H22V42ZM22 22V42V22ZM22 44C21.4444 44 20.9722 43.8055 20.5833 43.4166C20.1944 43.0278 20 42.5555 20 42V22C20 21.4444 20.1944 20.9722 20.5833 20.5833C20.9722 20.1944 21.4444 20 22 20H28.8333C28.9444 19.2222 29.3 18.5833 29.9 18.0833C30.5 17.5833 31.2 17.3333 32 17.3333C32.8 17.3333 33.5 17.5833 34.1 18.0833C34.7 18.5833 35.0556 19.2222 35.1667 20H42C42.5556 20 43.0278 20.1944 43.4167 20.5833C43.8056 20.9722 44 21.4444 44 22V42C44 42.5555 43.8056 43.0278 43.4167 43.4166C43.0278 43.8055 42.5556 44 42 44H22ZM32 21.4333C32.3111 21.4333 32.5833 21.3166 32.8167 21.0833C33.05 20.85 33.1667 20.5778 33.1667 20.2666C33.1667 19.9555 33.05 19.6833 32.8167 19.45C32.5833 19.2166 32.3111 19.1 32 19.1C31.6889 19.1 31.4167 19.2166 31.1833 19.45C30.95 19.6833 30.8333 19.9555 30.8333 20.2666C30.8333 20.5778 30.95 20.85 31.1833 21.0833C31.4167 21.3166 31.6889 21.4333 32 21.4333Z" fill="#DF3C4E"/>
</svg>
